<?xml version="1.0" encoding="UTF-8"?>
<svg width="780px" height="780px" viewBox="0 0 780 780" version="1.1" xmlns="http://www.w3.org/2000/svg" xmlns:xlink="http://www.w3.org/1999/xlink">
    <!-- Generator: Sketch 52.5 (67469) - http://www.bohemiancoding.com/sketch -->
    <title>Symbol White</title>
    <desc>Created with Sketch.</desc>
    <defs>
        <path d="M349.364393,0 C331.730449,0 303.078203,4.95992575 276.076539,17.0982531 L272.219634,34.1965062 L296.462562,36.9546113 C316.302829,39.1630941 322.366057,45.2289267 319.058236,66.1878608 L294.81198,209.599334 C289.301165,241.590688 305.281198,262 340.549085,262 C355.427621,262 376.366057,256.487121 389.03827,247.106899 L394,230.561599 L382.978369,228.356447 C367.550749,225.045389 362.039933,219.529178 364.795341,204.636077 L388.489185,70.0485417 C397.304493,19.8563582 378.569052,0 349.364393,0 Z M205.540765,0 C190.66223,0 163.660566,4.95992575 133.354409,17.0982531 L130.049917,34.1965062 L152.08985,36.9546113 C174.682196,39.7127165 181.297837,45.2289267 177.990017,66.1878608 L153.74376,209.599334 C148.232945,241.590688 161.457571,262 192.31614,262 C209.950083,262 229.237937,255.934167 243.56406,246.557276 L247.973378,230.011977 L238.602329,228.356447 C224.279534,226.147965 220.971714,219.529178 223.174709,204.636077 L246.868552,55.1554403 C252.93178,15.9923462 240.25624,0 205.540765,0 Z M72.1896839,0 C55.1048253,0 26.452579,7.16840847 3.3078203,17.0982531 L0,34.1965062 L14.3294509,37.5075648 C37.4742097,43.023775 40.2296173,44.1263509 36.921797,65.0852849 L12.6755408,209.599334 C7.16472546,241.590688 20.9417637,262 48.4925125,262 C65.0249584,262 87.6206323,256.487121 101.394343,247.106899 L105.800333,230.561599 L93.1281198,228.356447 C82.6589018,226.700918 79.9034942,219.529178 82.1064892,204.636077 L105.800333,55.1554403 C111.863561,17.0982531 109.108153,0 72.1896839,0 Z" id="path-1"></path>
        <linearGradient x1="0.000338184245%" y1="100.000685%" x2="0.000338184245%" y2="-0.000623617362%" id="linearGradient-3">
            <stop stop-color="#44C8AF" offset="0%"></stop>
            <stop stop-color="#14D4D3" offset="100%"></stop>
        </linearGradient>
    </defs>
    <g id="Symbol-White" stroke="none" stroke-width="1" fill="none" fill-rule="evenodd">
        <polygon id="Fill-1" fill="#FFFFFF" points="0.39 779.775 780.39 779.775 780.39 -0.225 0.39 -0.225"></polygon>
        <g id="Group-7" transform="translate(193.000000, 259.000000)">
            <g id="Group-3">
                <mask id="mask-2" fill="white">
                    <use xlink:href="#path-1"></use>
                </mask>
                <g id="Clip-2"></g>
                <path d="M349.364393,0 C331.730449,0 303.078203,4.95992575 276.076539,17.0982531 L272.219634,34.1965062 L296.462562,36.9546113 C316.302829,39.1630941 322.366057,45.2289267 319.058236,66.1878608 L294.81198,209.599334 C289.301165,241.590688 305.281198,262 340.549085,262 C355.427621,262 376.366057,256.487121 389.03827,247.106899 L394,230.561599 L382.978369,228.356447 C367.550749,225.045389 362.039933,219.529178 364.795341,204.636077 L388.489185,70.0485417 C397.304493,19.8563582 378.569052,0 349.364393,0 Z M205.540765,0 C190.66223,0 163.660566,4.95992575 133.354409,17.0982531 L130.049917,34.1965062 L152.08985,36.9546113 C174.682196,39.7127165 181.297837,45.2289267 177.990017,66.1878608 L153.74376,209.599334 C148.232945,241.590688 161.457571,262 192.31614,262 C209.950083,262 229.237937,255.934167 243.56406,246.557276 L247.973378,230.011977 L238.602329,228.356447 C224.279534,226.147965 220.971714,219.529178 223.174709,204.636077 L246.868552,55.1554403 C252.93178,15.9923462 240.25624,0 205.540765,0 Z M72.1896839,0 C55.1048253,0 26.452579,7.16840847 3.3078203,17.0982531 L0,34.1965062 L14.3294509,37.5075648 C37.4742097,43.023775 40.2296173,44.1263509 36.921797,65.0852849 L12.6755408,209.599334 C7.16472546,241.590688 20.9417637,262 48.4925125,262 C65.0249584,262 87.6206323,256.487121 101.394343,247.106899 L105.800333,230.561599 L93.1281198,228.356447 C82.6589018,226.700918 79.9034942,219.529178 82.1064892,204.636077 L105.800333,55.1554403 C111.863561,17.0982531 109.108153,0 72.1896839,0 Z" id="Fill-1" fill="url(#linearGradient-3)" mask="url(#mask-2)"></path>
            </g>
        </g>
    </g>
</svg>